<?xml version="1.0" encoding="UTF-8"?>
<svg id="Layer_1" data-name="Layer 1" xmlns="http://www.w3.org/2000/svg" viewBox="0 0 1398.61 536.74">
  <defs>
    <style>
      .cls-1 {
        fill: #edb53e;
      }

      .cls-2 {
        fill: #fff;
      }
    </style>
  </defs>
  <g id="Logo_Green_-_PentX" data-name="Logo Green - PentX">
    <path class="cls-2" d="M274.71,170.34c-12.08-11.86-27.13-21.19-44.74-27.71-17.71-6.56-38.18-9.89-60.85-9.89-9.45,0-19.55.43-30.01,1.29-10.38.85-20.79,1.98-30.94,3.36-10.04,1.37-19.79,3.02-29,4.9-7.92,1.63-15.12,3.33-21.44,5.07v353.84h71.79v-105.24l5.8,2.48c8.63,3.69,17.77,6.58,27.17,8.61,9.33,2.01,19.51,3.03,30.27,3.03,19.35,0,36.66-3.38,51.45-10.04,14.74-6.65,27.26-16.08,37.21-28.04,10-12.04,17.71-26.65,22.9-43.42,5.23-16.9,7.88-35.96,7.88-56.65s-3.26-40.81-9.69-58c-6.39-17.08-15.75-31.74-27.8-43.59ZM177.71,352.48c-8.56,0-17.14-1.1-25.51-3.26-8.44-2.18-15.43-4.98-20.78-8.31l-1.9-1.18v-145.6l3.4-.6c4.07-.72,9.26-1.35,15.42-1.87,6.18-.53,12.99-.8,20.24-.8,23.12,0,40.86,7.81,52.74,23.22,11.6,15.06,17.48,35.22,17.48,59.94,0,52.07-20.55,78.47-61.09,78.47Z"/>
    <path class="cls-2" d="M459.61,132.75c-16.53,0-32.86,3.05-48.53,9.06-15.63,5.99-29.66,14.94-41.69,26.6-12.05,11.68-21.92,26.51-29.34,44.08-7.43,17.58-11.2,38.45-11.2,62.04,0,19.54,2.9,37.97,8.62,54.77,5.67,16.65,14.54,31.25,26.38,43.38,11.83,12.14,27.01,21.85,45.11,28.87,18.16,7.04,39.89,10.61,64.58,10.61,9.79,0,19.73-.52,29.54-1.53,9.84-1.02,19.19-2.32,27.8-3.85,8.55-1.52,16.42-3.32,23.38-5.34,5.44-1.58,10.05-3.17,13.74-4.74l-9.35-54.85c-8.37,3.08-18.61,5.74-30.54,7.93-14.29,2.63-29.05,3.96-43.86,3.96-23.6,0-42.78-4.96-56.98-14.74-14.5-9.98-22.82-23.67-24.72-40.69l-.49-4.42h181.7c.25-3.2.51-6.71.77-10.54.35-5.34.53-10.23.53-14.52,0-44.72-11.33-78.96-33.66-101.78-22.29-22.75-53.16-34.29-91.75-34.29ZM401.8,248.95l.75-4.61c1.11-6.8,2.88-13.58,5.27-20.16,2.47-6.82,6.06-12.92,10.66-18.13,4.64-5.25,10.5-9.51,17.43-12.68,6.96-3.18,15.29-4.79,24.78-4.79s18.36,1.72,25.17,5.11c6.72,3.35,12.37,7.7,16.82,12.95,4.43,5.24,7.75,11.29,9.86,17.97,2.05,6.51,3.28,13.29,3.66,20.15l.23,4.2h-114.61Z"/>
    <path class="cls-2" d="M826.46,167.15c-9-10.85-21.4-19.38-36.86-25.34-15.6-6.01-35.48-9.06-59.06-9.06s-46.11,1.68-67.43,4.98c-2.68.42-5.28.84-7.84,1.27v34.93h-42.66v237.57h74.85v-213.99l2.31-.32c5.09-.71,10.94-1.34,17.39-1.87,6.49-.53,12.73-.8,18.53-.8,19.56,0,33.19,5.74,40.51,17.07,7.17,11.1,10.65,29.18,10.65,55.26v144.65h74.85v-154.16c0-18.68-1.97-35.88-5.84-51.1-3.84-15.03-10.37-28.19-19.4-39.1Z"/>
    <path class="cls-2" d="M1032.52,351.64c-9.3,1.59-18.46,2.4-27.25,2.4-19.26,0-32.37-5.51-38.98-16.37-6.23-10.23-9.38-23.99-9.38-40.9v-99.97h95.81l.37-.05h.58v-57.23h-96.76V59.44l-72.52,11.32v227.06c0,17.38,1.69,33.4,5.01,47.62,3.26,13.97,9.06,25.99,17.25,35.74,8.16,9.72,19.23,17.42,32.9,22.88,13.8,5.52,31.57,8.31,52.83,8.31,16.8,0,31.14-1.37,42.63-4.06,6.18-1.45,12.38-3.16,18.43-5.07l.26-.08v-56.66l-.48.15c-6.39,2.05-13.36,3.73-20.69,4.98Z"/>
    <g>
      <path class="cls-2" d="M1242.85,275.56l83.83-116.8,14.2-19.72h-77.85l-6.73,9.44-.03.05-27.27,38.24-.96,1.35h0l-23.56,33.04-43.59-61.79-14.04-20.33h-70.97l3.55,12.88v7.19c1.08,1.53,2.17,3.07,3.25,4.6l2.81,10.2,3.42-1.38c9.02,12.74,18.07,25.53,27.22,38.45,5.85,8.27,11.83,16.71,17.86,25.24.22-.27.44-.54.68-.8,6.34-6.87,18.33-6.52,24.74,0,3.17,3.22,6.01,6.73,8.98,10.13,1.52,1.74,3.06,3.47,4.71,5.1.67.66,1.37,1.28,2.05,1.93.02.01.03.02.06.04,8.14,5.4,10.93,15.05,6.28,23.81-3.97,7.48-14.85,10.88-22.48,7.08-7.75,8.57-15.62,17.61-23.62,27.16-9.63,11.5-18.59,23.35-26.87,35.54-8.28,12.19-15.89,24.03-22.83,35.5-2.25,3.72-4.3,7.19-6.25,10.56v8.91l-3.55,2.95.03,7.36,7.68-.21h61.88c3.54-6.67,7.6-13.84,12.16-21.53,4.56-7.69,9.21-15.46,13.94-23.31,4.73-7.85,9.73-14.41,14.98-19.66,5.26-5.24,10.43-10.04,15.52-14.37,5.33,4.66,10.74,9.84,16.23,15.54,5.49,5.7,10.75,12.65,15.8,20.86,5.04,8.21,9.58,16.09,13.62,23.62,4.03,7.53,7.42,13.82,10.16,18.85h80.69c-9.89-18.66-23.03-39.91-39.43-63.74-16.4-23.84-35.17-47.82-56.29-71.95Z"/>
      <polygon class="cls-1" points="1075.87 139.04 1075.87 222.96 1134.81 270.87 1168.28 255.55 1075.87 327.6 1075.87 411.51 1242.68 275.43 1075.87 139.04"/>
    </g>
  </g>
</svg>